<?xml version="1.0" standalone="no"?>
<!DOCTYPE svg PUBLIC "-//W3C//DTD SVG 20010904//EN"
 "http://www.w3.org/TR/2001/REC-SVG-20010904/DTD/svg10.dtd">
<svg version="1.0" xmlns="http://www.w3.org/2000/svg"
 width="512.000000pt" height="512.000000pt" viewBox="0 0 512.000000 512.000000"
 preserveAspectRatio="xMidYMid meet">
<metadata>
Created by potrace 1.14, written by Peter Selinger 2001-2017
</metadata>
<g transform="translate(0.000000,512.000000) scale(0.100000,-0.100000)"
fill="#000000" stroke="none">
<path d="M85 5097 c-22 -12 -50 -40 -63 -62 -21 -37 -23 -50 -20 -170 3 -107
6 -136 22 -162 20 -32 71 -66 116 -76 l25 -6 0 -845 c0 -786 -1 -844 -17 -835
-9 5 -18 12 -20 16 -2 5 -31 35 -66 68 l-62 59 0 -1542 0 -1542 1632 0 1633 0
-45 41 c-25 23 -112 105 -195 184 -82 78 -166 157 -185 175 -19 18 -100 94
-179 169 -79 75 -163 154 -186 176 -24 22 -102 96 -175 165 -73 69 -150 141
-170 160 -20 19 -104 98 -185 175 -82 77 -165 156 -185 175 -20 19 -99 94
-175 165 -213 201 -203 191 -478 451 -59 56 -107 104 -107 107 0 8 2300 6
2301 -1 0 -4 1 -333 2 -732 l2 -725 23 -47 c30 -61 89 -112 150 -129 37 -11
190 -13 747 -13 684 0 701 0 745 21 53 24 94 63 124 118 l21 40 0 1145 c0
1106 -1 1146 -19 1180 -30 56 -90 105 -148 123 -45 14 -110 16 -418 16 -201 0
-373 0 -383 0 -16 1 -17 18 -15 248 l3 246 365 1 365 1 56 26 c74 35 149 113
174 181 17 45 20 78 20 213 0 150 -2 163 -25 210 -31 64 -101 134 -165 165
l-50 25 -372 3 -373 3 0 82 c0 83 0 83 27 85 41 3 98 46 118 88 13 27 18 65
19 146 2 119 -8 165 -46 205 -51 56 78 53 -2105 53 l-2018 0 -40 -23z m756
-3717 c193 -182 289 -273 348 -329 25 -24 107 -101 181 -171 74 -70 157 -149
184 -174 l50 -46 -472 0 -472 0 0 440 c0 375 2 440 14 433 8 -4 83 -73 167
-153z"/>
</g>
</svg>
